<svg width="431" height="105" viewBox="0 0 431 105" fill="none" xmlns="http://www.w3.org/2000/svg">
<path d="M23.7943 104.44C16.2103 104.44 10.4023 102.28 6.37031 97.96C2.43431 93.64 0.466313 87.544 0.466313 79.672V25.528C0.466313 17.656 2.43431 11.56 6.37031 7.24C10.4023 2.92 16.2103 0.759995 23.7943 0.759995C31.3783 0.759995 37.1383 2.92 41.0743 7.24C45.1063 11.56 47.1223 17.656 47.1223 25.528V36.184H32.1463V24.52C32.1463 18.28 29.5063 15.16 24.2263 15.16C18.9463 15.16 16.3063 18.28 16.3063 24.52V80.824C16.3063 86.968 18.9463 90.04 24.2263 90.04C29.5063 90.04 32.1463 86.968 32.1463 80.824V65.416H47.1223V79.672C47.1223 87.544 45.1063 93.64 41.0743 97.96C37.1383 102.28 31.3783 104.44 23.7943 104.44ZM68.8393 2.19999H90.2953L106.711 103H90.8713L87.9913 82.984V83.272H69.9913L67.1113 103H52.4233L68.8393 2.19999ZM86.1193 69.592L79.0633 19.768H78.7753L71.8633 69.592H86.1193ZM114.396 2.19999H137.724C145.596 2.19999 151.5 4.31199 155.436 8.536C159.372 12.76 161.34 18.952 161.34 27.112V37.048C161.34 45.208 159.372 51.4 155.436 55.624C151.5 59.848 145.596 61.96 137.724 61.96H130.236V103H114.396V2.19999ZM137.724 47.56C140.316 47.56 142.236 46.84 143.484 45.4C144.828 43.96 145.5 41.512 145.5 38.056V26.104C145.5 22.648 144.828 20.2 143.484 18.76C142.236 17.32 140.316 16.6 137.724 16.6H130.236V47.56H137.724ZM191.098 104.44C183.418 104.44 177.61 102.28 173.674 97.96C169.738 93.544 167.77 87.256 167.77 79.096V73.336H182.746V80.248C182.746 86.776 185.482 90.04 190.954 90.04C193.642 90.04 195.658 89.272 197.002 87.736C198.442 86.104 199.162 83.512 199.162 79.96C199.162 75.736 198.202 72.04 196.282 68.872C194.362 65.608 190.81 61.72 185.626 57.208C179.098 51.448 174.538 46.264 171.946 41.656C169.354 36.952 168.058 31.672 168.058 25.816C168.058 17.848 170.074 11.704 174.106 7.384C178.138 2.96799 183.994 0.759995 191.674 0.759995C199.258 0.759995 204.97 2.96799 208.81 7.384C212.746 11.704 214.714 17.944 214.714 26.104V30.28H199.738V25.096C199.738 21.64 199.066 19.144 197.722 17.608C196.378 15.976 194.41 15.16 191.818 15.16C186.538 15.16 183.898 18.376 183.898 24.808C183.898 28.456 184.858 31.864 186.778 35.032C188.794 38.2 192.394 42.04 197.578 46.552C204.202 52.312 208.762 57.544 211.258 62.248C213.754 66.952 215.002 72.472 215.002 78.808C215.002 87.064 212.938 93.4 208.81 97.816C204.778 102.232 198.874 104.44 191.098 104.44ZM224.084 2.19999H239.924V103H224.084V2.19999ZM274.107 104.44C266.523 104.44 260.715 102.28 256.683 97.96C252.747 93.64 250.779 87.544 250.779 79.672V25.528C250.779 17.656 252.747 11.56 256.683 7.24C260.715 2.92 266.523 0.759995 274.107 0.759995C281.691 0.759995 287.451 2.92 291.387 7.24C295.419 11.56 297.435 17.656 297.435 25.528V36.184H282.459V24.52C282.459 18.28 279.819 15.16 274.539 15.16C269.259 15.16 266.619 18.28 266.619 24.52V80.824C266.619 86.968 269.259 90.04 274.539 90.04C279.819 90.04 282.459 86.968 282.459 80.824V65.416H297.435V79.672C297.435 87.544 295.419 93.64 291.387 97.96C287.451 102.28 281.691 104.44 274.107 104.44ZM329.952 104.44C322.272 104.44 316.416 102.28 312.384 97.96C308.352 93.544 306.336 87.256 306.336 79.096V2.19999H322.176V80.248C322.176 83.704 322.848 86.2 324.192 87.736C325.632 89.272 327.648 90.04 330.24 90.04C332.832 90.04 334.8 89.272 336.144 87.736C337.584 86.2 338.304 83.704 338.304 80.248V2.19999H353.568V79.096C353.568 87.256 351.552 93.544 347.52 97.96C343.488 102.28 337.632 104.44 329.952 104.44ZM364.849 2.19999H387.457L397.537 74.344H397.825L407.905 2.19999H430.513V103H415.537V26.68H415.249L403.729 103H390.481L378.961 26.68H378.673V103H364.849V2.19999Z" fill="#F84C1B"/>
</svg>
